<?xml version="1.0" encoding="utf-8"?>
<!-- Generator: Adobe Illustrator 27.5.0, SVG Export Plug-In . SVG Version: 6.00 Build 0)  -->
<svg version="1.1" xmlns="http://www.w3.org/2000/svg" xmlns:xlink="http://www.w3.org/1999/xlink" x="0px" y="0px"
	 viewBox="0 0 500 500" style="enable-background:new 0 0 500 500;" xml:space="preserve">
<g id="BACKGROUND">
	<g>
		<rect style="fill:#FFFFFF;" width="500" height="500"/>
	</g>
</g>
<g id="OBJECTS">
	<g>
		<g>
			<g>
				<g>
					<path style="fill:#17877F;" d="M140.147,386.896c-4.612,0-9.596-0.383-14.854-1.341c-20.744-3.779-38.257-15.511-50.542-33.723
						c-14.051-20.83-15.916-52.12-5.169-79.451c7.334-18.652,19.318-31.362,32.936-35.102c1.515-0.415,3.026,0.458,3.366,1.959
						c0.341,1.502-0.617,3.062-2.14,3.481c-11.773,3.242-22.271,14.651-28.847,31.49c-8.154,20.885-10.011,51.994,4.77,73.806
						c11.607,17.127,27.414,27.697,46.891,31.238c16.456,2.99,31.992-0.013,41.009-3.81c29.133-12.267,55.204-0.338,56.307,0.178
						c1.505,0.705,2.188,2.58,1.526,4.188c-0.663,1.606-2.422,2.344-3.931,1.635l0,0c-0.247-0.117-25.031-11.407-51.827-0.091
						C166.014,382.887,155.07,386.896,140.147,386.896z"/>
				</g>
			</g>
		</g>
		<path style="fill:#17877F;" d="M152.449,173.242"/>
		<g>
			<path style="fill:#17877F;" d="M150.027,209.115c1.161,0.072,2.131-0.787,2.208-1.929l2.152-31.871h191.225l2.152,31.871
				c0.073,1.095,0.984,1.934,2.066,1.934c0.047,0,0.094-0.002,0.142-0.005c1.142-0.077,2.006-1.066,1.929-2.208l-2.282-33.804
				c-0.001-0.01-0.004-0.02-0.005-0.029c-0.002-0.03-0.011-0.058-0.015-0.087c-0.018-0.145-0.051-0.284-0.097-0.418
				c-0.015-0.041-0.028-0.081-0.045-0.121c-0.066-0.159-0.147-0.311-0.248-0.446c-0.001-0.003-0.002-0.005-0.004-0.008
				l-11.752-15.579c-0.392-0.52-1.005-0.825-1.655-0.825h-19.883c-1.146,0-2.073,0.928-2.073,2.073c0,1.145,0.928,2.073,2.073,2.073
				h18.85l8.624,11.433H156.61l8.624-11.433h18.764c1.146,0,2.073-0.928,2.073-2.073c0-1.145-0.928-2.073-2.073-2.073h-19.797
				c-0.65,0-1.264,0.305-1.655,0.825l-11.752,15.579c-0.002,0.002-0.003,0.005-0.004,0.008c-0.102,0.136-0.182,0.287-0.248,0.446
				c-0.017,0.04-0.03,0.079-0.045,0.121c-0.046,0.134-0.079,0.273-0.097,0.418c-0.004,0.029-0.013,0.057-0.015,0.087
				c-0.001,0.01-0.004,0.019-0.005,0.029l-2.282,33.804C148.021,208.049,148.885,209.038,150.027,209.115z"/>
			<path style="fill:#17877F;" d="M218.642,355.607h-75.759l1.356-25.695c0.061-1.143-0.817-2.119-1.961-2.18
				c-1.128-0.058-2.119,0.817-2.18,1.961l-1.472,27.878c-0.03,0.568,0.175,1.124,0.566,1.536c0.392,0.413,0.935,0.647,1.504,0.647
				h77.944c1.146,0,2.073-0.928,2.073-2.073C220.715,356.535,219.787,355.607,218.642,355.607z"/>
			<path style="fill:#17877F;" d="M359.901,329.693c-0.061-1.144-1.053-2.02-2.18-1.961c-1.144,0.061-2.021,1.036-1.961,2.18
				l1.357,25.695h-68.615c-1.146,0-2.073,0.928-2.073,2.073c0,1.146,0.928,2.073,2.073,2.073h70.801
				c0.569,0,1.112-0.233,1.504-0.647c0.392-0.412,0.597-0.968,0.566-1.536L359.901,329.693z"/>
		</g>
		<g>
			<g>
				<path style="fill:#FF8E00;" d="M299.076,161.153c-1.657,0-3-1.343-3-3c0-30.738-20.67-55.745-46.076-55.745
					c-25.406,0-46.076,25.007-46.076,55.745c0,1.657-1.343,3-3,3c-1.657,0-3-1.343-3-3c0-34.046,23.361-61.745,52.076-61.745
					c28.715,0,52.076,27.699,52.076,61.745C302.076,159.81,300.733,161.153,299.076,161.153z"/>
			</g>
			<path style="fill:#FF8E00;" d="M305.558,158.153c0,3.58-2.901,6.482-6.481,6.482c-3.58,0-6.48-2.902-6.48-6.482
				c0-3.579,2.9-6.481,6.48-6.481C302.656,151.672,305.558,154.574,305.558,158.153z"/>
			<path style="fill:#FF8E00;" d="M207.404,158.153c0,3.58-2.9,6.482-6.48,6.482c-3.58,0-6.48-2.902-6.48-6.482
				c0-3.579,2.9-6.481,6.48-6.481C204.504,151.672,207.404,154.574,207.404,158.153z"/>
		</g>
		<g>
			<g>
				
					<text transform="matrix(0.8 0 0 1 115.2466 250.7988)" style="fill:#17877F; font-family:'Montserrat-BlackItalic'; font-size:49.0495px;">CLICK &amp;</text>
				
					<text transform="matrix(0.8 0 0 1 121.8906 319.0493)" style="fill:#FF8E00; font-family:'Montserrat-BlackItalic'; font-size:68.8516px;">COLLECT</text>
			</g>
			<g>
				<g>
					<g>
						<path style="fill:#FF8E00;" d="M373.718,219.15H305.45c-1.933,0-3.5-1.567-3.5-3.5s1.567-3.5,3.5-3.5h68.268
							c1.933,0,3.5,1.567,3.5,3.5S375.65,219.15,373.718,219.15z"/>
					</g>
					<g>
						<path style="fill:#FF8E00;" d="M375.135,250.251h-68.268c-1.933,0-3.5-1.567-3.5-3.5c0-1.933,1.567-3.5,3.5-3.5h68.268
							c1.933,0,3.5,1.567,3.5,3.5C378.635,248.684,377.067,250.251,375.135,250.251z"/>
					</g>
					<g>
						<path style="fill:#FF8E00;" d="M396.353,234.543h-68.269c-1.933,0-3.5-1.567-3.5-3.5c0-1.933,1.567-3.5,3.5-3.5h68.269
							c1.933,0,3.5,1.567,3.5,3.5C399.853,232.976,398.286,234.543,396.353,234.543z"/>
					</g>
				</g>
			</g>
		</g>
		<g>
			<path style="fill:#17877F;" d="M262.736,383.115c-0.243,0.575-0.911,0.847-1.486,0.604l-0.603-0.255
				c-0.575-0.242-0.847-0.91-0.604-1.485l3.332-7.893c0.243-0.575,0.911-0.847,1.486-0.604l0.602,0.254
				c0.575,0.243,0.847,0.911,0.604,1.486L262.736,383.115z"/>
			<g>
				<g>
					<path style="fill:#17877F;" d="M246.43,403.592c-3.341,0-6.597-0.66-9.678-1.961c-12.918-5.456-18.906-20.601-13.35-33.76
						l8.127-19.246c4.088-9.68,13.441-15.934,23.829-15.934c3.341,0,6.598,0.659,9.678,1.961
						c6.244,2.637,11.073,7.616,13.599,14.021c2.518,6.387,2.43,13.396-0.249,19.739l-8.126,19.246
						C266.173,397.337,256.819,403.592,246.43,403.592z M255.358,337.691c-8.374,0-15.919,5.056-19.224,12.879l-8.127,19.246
						c-4.483,10.619,0.311,22.825,10.689,27.209c2.462,1.039,5.063,1.566,7.732,1.566c8.375,0,15.921-5.056,19.225-12.879
						l8.126-19.246c2.166-5.13,2.238-10.798,0.203-15.96c-2.028-5.143-5.897-9.139-10.893-11.249
						C260.629,338.219,258.027,337.691,255.358,337.691z"/>
				</g>
				<g>
					<path style="fill:#17877F;" d="M274.472,373.759c-0.324,0-0.654-0.063-0.972-0.198l-42.253-17.842
						c-1.271-0.537-1.867-2.003-1.33-3.275c0.536-1.271,2.004-1.87,3.275-1.33l42.253,17.842c1.272,0.537,1.867,2.003,1.33,3.275
						C276.373,373.185,275.446,373.759,274.472,373.759z"/>
				</g>
				<g>
					<path style="fill:#17877F;" d="M257.742,358.411c-0.714,0-1.41-0.141-2.069-0.42l-0.837-0.353
						c-2.714-1.147-3.989-4.288-2.845-7.001l1.94-4.595c0.838-1.982,2.773-3.263,4.932-3.263c0.714,0,1.41,0.141,2.069,0.419
						l0.838,0.353c1.311,0.554,2.329,1.589,2.868,2.913c0.538,1.326,0.529,2.778-0.025,4.089l-1.938,4.594
						C261.836,357.131,259.9,358.411,257.742,358.411z M258.863,346.78c-0.547,0-1.036,0.321-1.246,0.819l-1.94,4.594
						c-0.288,0.682,0.033,1.472,0.715,1.761l0.837,0.353c0.675,0.283,1.482-0.057,1.762-0.715l1.938-4.594
						c0.139-0.327,0.14-0.691,0.004-1.026c-0.137-0.335-0.392-0.596-0.719-0.733l-0.837-0.354
						C259.214,346.815,259.04,346.78,258.863,346.78z"/>
				</g>
				<g>
					<path style="fill:#17877F;" d="M260.573,347.22c-0.26,0-0.523-0.051-0.777-0.158c-1.018-0.43-1.494-1.603-1.065-2.621
						l3.489-8.264c0.43-1.018,1.603-1.494,2.621-1.065c1.018,0.43,1.494,1.603,1.064,2.621l-3.489,8.264
						C262.095,346.761,261.353,347.22,260.573,347.22z"/>
				</g>
			</g>
		</g>
	</g>
</g>
</svg>
