<svg width="27" height="27" viewBox="0 0 27 27" fill="none" xmlns="http://www.w3.org/2000/svg">
<g id="24 / notifications / bell">
<path id="icon" fill-rule="evenodd" clip-rule="evenodd" d="M20.7435 11.0227C20.7435 6.64418 18.3291 3.60524 15.205 2.69292C15.0919 2.40022 14.9131 2.12812 14.6701 1.8998C13.8398 1.11966 12.546 1.11966 11.7157 1.8998C11.4732 2.12762 11.2947 2.39903 11.1815 2.69099C8.05343 3.59934 5.64224 6.63164 5.64224 11.0227C5.64224 13.8638 5.06945 15.4557 4.0091 16.6094C3.83182 16.8023 3.35151 17.2442 3.02614 17.5435L3.02613 17.5435L3.02612 17.5435C2.87218 17.6851 2.75293 17.7948 2.71687 17.8311L2.40625 18.1461V21.8245H8.97313C9.19518 22.9701 9.81677 23.7365 10.9408 24.4225C12.3236 25.2663 14.0621 25.2663 15.4449 24.4225C16.4369 23.8171 17.1021 22.8867 17.372 21.8245H23.9795V18.1461L23.6689 17.8311C23.6362 17.798 23.5218 17.6924 23.3722 17.5545C23.0479 17.2552 22.5581 16.8035 22.3781 16.6068C21.317 15.4478 20.7435 13.8538 20.7435 11.0227ZM15.0662 21.8245H11.2282C11.3806 22.108 11.6404 22.3221 12.0646 22.5809C12.7574 23.0037 13.6284 23.0037 14.3211 22.5809C14.642 22.3852 14.8926 22.1261 15.0662 21.8245ZM20.7869 18.0635C21.0138 18.3115 21.5003 18.7647 21.8222 19.0608V19.6672H4.56358V19.0613C4.88294 18.7687 5.37088 18.3158 5.59746 18.0693C7.03827 16.5016 7.79957 14.3857 7.79957 11.0227C7.79957 6.94521 10.3158 4.56404 13.1929 4.56404C16.0618 4.56404 18.5862 6.9575 18.5862 11.0227C18.5862 14.3749 19.3477 16.4915 20.7869 18.0635Z" fill="black"/>
</g>
</svg>
