<?xml version="1.0" standalone="no"?>
<!DOCTYPE svg PUBLIC "-//W3C//DTD SVG 20010904//EN"
 "http://www.w3.org/TR/2001/REC-SVG-20010904/DTD/svg10.dtd">
<svg version="1.0" xmlns="http://www.w3.org/2000/svg"
 width="512.000000pt" height="512.000000pt" viewBox="0 0 512.000000 512.000000"
 preserveAspectRatio="xMidYMid meet">

<g transform="translate(0.000000,512.000000) scale(0.100000,-0.100000)"
fill="#000000" stroke="none">
<path d="M2480 5100 c-57 -19 -80 -40 -219 -199 -121 -137 -185 -148 -455 -75
-225 61 -280 57 -388 -28 -54 -42 -84 -114 -108 -258 -29 -173 -67 -238 -169
-289 -20 -10 -107 -37 -195 -60 -181 -48 -220 -65 -266 -117 -89 -102 -95
-188 -25 -379 41 -115 46 -137 43 -195 -2 -36 -13 -83 -23 -105 -10 -22 -81
-103 -156 -180 -159 -162 -178 -195 -179 -300 0 -99 28 -155 116 -231 145
-124 191 -177 210 -240 21 -73 16 -109 -36 -299 -58 -210 -55 -278 16 -376 49
-67 106 -94 267 -123 149 -27 203 -50 251 -107 42 -49 51 -73 96 -244 23 -88
48 -174 55 -191 34 -83 135 -152 235 -161 50 -5 76 1 210 47 237 81 269 72
489 -144 131 -128 154 -146 201 -160 68 -20 112 -20 179 0 57 17 104 58 230
203 120 137 186 148 451 76 91 -25 184 -45 207 -45 92 0 207 70 249 152 9 17
27 91 40 166 34 186 69 249 164 297 25 12 117 41 205 64 215 57 269 91 318
200 33 74 26 147 -24 281 -40 103 -44 124 -44 200 0 64 5 94 19 120 10 19 81
98 157 176 159 162 178 194 179 299 0 99 -28 155 -115 231 -159 138 -184 165
-206 223 -27 73 -22 130 31 321 46 166 51 240 20 308 -51 112 -115 154 -281
182 -142 24 -195 42 -242 81 -57 47 -82 100 -127 274 -23 88 -48 174 -55 191
-34 83 -135 152 -236 161 -50 5 -75 -1 -210 -47 -236 -81 -268 -72 -488 144
-131 128 -154 146 -201 160 -70 21 -122 20 -190 -4z m340 -860 c546 -105 965
-522 1086 -1080 26 -120 26 -410 0 -530 -117 -537 -513 -947 -1031 -1068 -650
-152 -1311 182 -1576 797 -286 664 3 1440 659 1766 143 71 322 122 497 139 75
7 270 -5 365 -24z"/>
<path d="M2340 3950 c-217 -46 -396 -147 -554 -310 -141 -147 -222 -292 -272
-488 -95 -373 21 -764 307 -1038 205 -196 452 -294 739 -294 303 0 562 110
772 328 178 185 274 390 300 644 27 256 -48 531 -202 737 -169 225 -404 375
-670 425 -112 22 -311 20 -420 -4z m258 -425 c16 -12 38 -65 83 -206 44 -135
67 -194 82 -204 17 -12 62 -15 224 -15 190 0 204 -1 223 -20 24 -24 26 -72 5
-94 -9 -8 -85 -65 -169 -126 -97 -69 -156 -119 -160 -133 -3 -13 18 -93 54
-205 33 -100 60 -193 60 -207 0 -26 -42 -65 -70 -65 -10 0 -91 54 -181 120
-106 77 -173 120 -189 120 -16 0 -83 -42 -189 -120 -90 -66 -170 -120 -178
-120 -18 0 -56 20 -65 34 -16 23 -6 67 52 240 37 111 57 188 54 202 -4 15 -60
62 -161 135 -85 62 -161 119 -169 126 -20 21 -17 70 6 93 19 19 33 20 223 20
162 0 207 3 224 15 15 10 38 69 82 204 62 191 78 221 121 221 9 0 25 -7 38
-15z"/>
<path d="M471 1146 l-344 -344 5 -51 c6 -57 26 -87 76 -108 29 -12 56 -10 247
17 117 16 230 30 249 30 42 0 100 -46 111 -88 4 -15 -7 -129 -26 -262 -36
-264 -36 -273 30 -317 39 -26 80 -29 119 -9 44 24 800 789 772 782 -177 -47
-347 -2 -462 123 -71 76 -91 120 -143 317 -49 185 -55 199 -93 218 -26 13
-139 36 -178 36 -12 0 -148 -129 -363 -344z"/>
<path d="M4181 1431 c-168 -46 -184 -59 -201 -163 -24 -147 -40 -214 -67 -268
-37 -77 -123 -159 -208 -200 -63 -31 -81 -35 -174 -38 l-104 -4 364 -365 c200
-200 376 -371 391 -379 59 -31 134 -3 165 61 16 33 15 45 -16 264 -19 132 -30
243 -26 260 9 43 67 91 109 91 18 0 131 -14 249 -30 193 -27 220 -29 249 -17
50 21 70 51 76 108 l5 51 -334 334 c-183 184 -336 333 -339 333 -3 -1 -65 -18
-139 -38z"/>
</g>
</svg>
