<svg width="27" height="27" viewBox="0 0 27 27" fill="none" xmlns="http://www.w3.org/2000/svg">
<path fill-rule="evenodd" clip-rule="evenodd" d="M7.84779 6.70796C8.16491 4.35129 10.52 2.39331 13.2049 2.39331C15.8897 2.39331 18.2448 4.35129 18.5619 6.70796H21.6691C22.8606 6.70796 23.8265 7.67383 23.8265 8.86529C23.8265 8.96737 23.8192 9.06933 23.8048 9.17038L21.9556 22.1143C21.8038 23.1771 20.8936 23.9666 19.82 23.9666H6.58975C5.51615 23.9666 4.60593 23.1771 4.4541 22.1143L2.60496 9.17038C2.43647 7.9909 3.25603 6.89814 4.43552 6.72965C4.53657 6.71521 4.63853 6.70796 4.74061 6.70796H7.84779ZM16.3631 6.70796C16.0352 5.56251 14.7129 4.55064 13.2049 4.55064C11.6969 4.55064 10.3746 5.56251 10.0467 6.70796H16.3631ZM4.74061 8.86529H7.81155V11.0226H9.96888V8.86529H16.4409V11.0226H18.5982V8.86529H21.6691L19.82 21.8092H6.58975L4.74061 8.86529Z" fill="black"/>
</svg>
