<svg width="27" height="26" viewBox="0 0 27 26" fill="none" xmlns="http://www.w3.org/2000/svg">
<path fill-rule="evenodd" clip-rule="evenodd" d="M14.1475 11.8654C12.1371 11.8654 10.4478 10.4903 9.9688 8.6294H2.28223V6.47207H9.9688C10.4478 4.61113 12.1371 3.23608 14.1475 3.23608C16.5304 3.23608 18.4622 5.16782 18.4622 7.55074C18.4622 9.93365 16.5304 11.8654 14.1475 11.8654ZM20.6195 6.47207H23.8555V8.6294H20.6195V6.47207ZM8.75421 22.652C6.74375 22.652 5.05446 21.277 4.57548 19.416H2.28223V17.2587H4.57548C5.05446 15.3978 6.74375 14.0227 8.75421 14.0227C11.1371 14.0227 13.0689 15.9545 13.0689 18.3374C13.0689 20.7203 11.1371 22.652 8.75421 22.652ZM15.2262 19.416H23.8555V17.2587H15.2262V19.416ZM10.9115 18.3374C10.9115 19.5288 9.94566 20.4947 8.75421 20.4947C7.56275 20.4947 6.59688 19.5288 6.59688 18.3374C6.59688 17.1459 7.56275 16.18 8.75421 16.18C9.94566 16.18 10.9115 17.1459 10.9115 18.3374ZM16.3048 7.55074C16.3048 8.7422 15.339 9.70806 14.1475 9.70806C12.9561 9.70806 11.9902 8.7422 11.9902 7.55074C11.9902 6.35928 12.9561 5.39341 14.1475 5.39341C15.339 5.39341 16.3048 6.35928 16.3048 7.55074Z" fill="black"/>
</svg>
