<svg width="512" height="512" viewBox="0 0 512 512" fill="none" xmlns="http://www.w3.org/2000/svg">
<path d="M256 441.221C256.41 441.221 256.809 441.196 257.219 441.196H254.782C255.191 441.196 255.591 441.221 256 441.221ZM320.589 279.665H191.401C147.728 283.658 111.729 314.03 99.3896 354.708C132.035 406.323 189.425 440.771 254.782 441.196H257.219C322.576 440.771 379.971 406.323 412.616 354.708C400.272 314.03 364.263 283.653 320.589 279.665Z" fill="black"/>
<path d="M256 263.675C306.771 263.675 347.93 222.517 347.93 171.745C347.93 120.974 306.771 79.8157 256 79.8157C205.229 79.8157 164.07 120.974 164.07 171.745C164.07 222.517 205.229 263.675 256 263.675Z" fill="black"/>
<path d="M256 25.6C128.963 25.6 25.6001 128.957 25.6001 256C25.6001 383.037 128.963 486.4 256 486.4C383.048 486.4 486.4 383.037 486.4 256C486.4 128.957 383.048 25.6 256 25.6ZM256 459.295C143.729 459.295 52.7054 368.282 52.7054 256C52.7054 143.718 143.729 52.7002 256 52.7002C368.282 52.7002 459.295 143.713 459.295 256C459.295 368.282 368.282 459.295 256 459.295Z" fill="black"/>
</svg>
