<svg width="26" height="27" viewBox="0 0 26 27" fill="none" xmlns="http://www.w3.org/2000/svg">
<path fill-rule="evenodd" clip-rule="evenodd" d="M17.8919 2.39333C16.3304 2.39331 15.3238 2.57934 14.1699 3.14414C13.7427 3.35325 13.3419 3.60507 12.9697 3.89887C12.6118 3.62154 12.2271 3.38128 11.8175 3.17872C10.6413 2.59694 9.58304 2.39331 8.07752 2.39331C4.04536 2.39331 1.11523 5.73422 1.11523 10.0733C1.11523 13.3501 2.94231 16.5155 6.3455 19.5763C8.13182 21.1829 10.4126 22.7728 12.046 23.6187L12.9805 24.1026L13.9151 23.6187C15.5485 22.7728 17.8292 21.1829 19.6156 19.5763C23.0188 16.5155 24.8458 13.3501 24.8458 10.0733C24.8458 5.78015 21.8881 2.40988 17.8919 2.39333ZM22.6885 10.0733C22.6885 12.6405 21.1635 15.2826 18.1729 17.9723C16.5425 19.4387 14.4464 20.9042 12.9805 21.673C11.5147 20.9042 9.41859 19.4387 7.78814 17.9723C4.7976 15.2826 3.27256 12.6405 3.27256 10.0733C3.27256 6.8673 5.30438 4.55064 8.07752 4.55064C9.27455 4.55064 10.0122 4.69258 10.8611 5.11245C11.3625 5.36046 11.8057 5.68795 12.1894 6.09719L12.9831 6.94387L13.7695 6.09048C14.1618 5.66484 14.6115 5.3299 15.1184 5.0818C15.9424 4.67845 16.634 4.55064 17.8875 4.55065C20.6263 4.562 22.6885 6.91179 22.6885 10.0733Z" fill="black"/>
</svg>
