<svg width="29" height="29" viewBox="0 0 29 29" fill="none" xmlns="http://www.w3.org/2000/svg">
<path d="M14.5 0C22.5084 0 29 6.49158 29 14.5C29 22.5084 22.5084 29 14.5 29C6.49158 29 0 22.5084 0 14.5C0 6.49158 6.49158 0 14.5 0Z" fill="url(#paint0_linear_433_1409)"/>
<path d="M14.5001 21.1734C13.3191 21.1734 12.1569 20.8591 11.1402 20.2649C11.0588 20.2176 10.9688 20.1869 10.8754 20.1746C10.7821 20.1624 10.6872 20.1688 10.5964 20.1935L8.38572 20.8002L9.15603 19.1038C9.26082 18.8732 9.23363 18.6042 9.0858 18.3986C8.26168 17.2573 7.82668 15.9087 7.82668 14.5C7.82668 10.8201 10.8201 7.82662 14.5001 7.82662C18.18 7.82662 21.1735 10.8201 21.1735 14.5C21.1735 18.18 18.18 21.1734 14.5001 21.1734ZM14.5001 6.414C10.0413 6.414 6.41463 10.0413 6.41463 14.5C6.41463 16.0684 6.85926 17.5745 7.70604 18.8817L6.4775 21.5875C6.36422 21.8372 6.40557 22.1295 6.58285 22.3379C6.71936 22.4971 6.91703 22.586 7.12037 22.586C7.57576 22.586 10.0595 21.8055 10.6916 21.6316C11.8633 22.2581 13.1714 22.586 14.5001 22.586C18.9583 22.586 22.5861 18.9582 22.5861 14.5C22.5861 10.0413 18.9583 6.41457 14.5001 6.414Z" fill="white"/>
<path d="M16.4303 15.4453C16.1245 15.5705 15.929 16.0497 15.7308 16.2944C15.6288 16.4195 15.5076 16.4394 15.3513 16.3765C14.2026 15.9188 13.3219 15.1519 12.6881 14.095C12.5804 13.9313 12.5997 13.8016 12.7294 13.6493C12.9209 13.4238 13.1616 13.1678 13.2131 12.8637C13.3281 12.1919 12.4496 10.107 11.289 11.0517C7.95008 13.7727 16.8591 20.9893 18.4671 17.0862C18.9219 15.9795 16.9378 15.2375 16.4303 15.4453Z" fill="white"/>
<defs>
<linearGradient id="paint0_linear_433_1409" x1="3.84193" y1="4.66832" x2="26.8584" y2="22.0887" gradientUnits="userSpaceOnUse">
<stop stop-color="#39AE41"/>
<stop offset="1" stop-color="#80C269"/>
</linearGradient>
</defs>
</svg>
